<svg class="rich-terminal" viewBox="0 0 1360 830.8" xmlns="http://www.w3.org/2000/svg">
    <!-- Generated with Rich https://www.textualize.io -->
    <style>

    @font-face {
        font-family: "Fira Code";
        src: local("FiraCode-Regular"),
                url("https://cdnjs.cloudflare.com/ajax/libs/firacode/6.2.0/woff2/FiraCode-Regular.woff2") format("woff2"),
                url("https://cdnjs.cloudflare.com/ajax/libs/firacode/6.2.0/woff/FiraCode-Regular.woff") format("woff");
        font-style: normal;
        font-weight: 400;
    }
    @font-face {
        font-family: "Fira Code";
        src: local("FiraCode-Bold"),
                url("https://cdnjs.cloudflare.com/ajax/libs/firacode/6.2.0/woff2/FiraCode-Bold.woff2") format("woff2"),
                url("https://cdnjs.cloudflare.com/ajax/libs/firacode/6.2.0/woff/FiraCode-Bold.woff") format("woff");
        font-style: bold;
        font-weight: 700;
    }

    .terminal-1640834539-matrix {
        font-family: Fira Code, monospace;
        font-size: 20px;
        line-height: 24.4px;
        font-variant-east-asian: full-width;
    }

    .terminal-1640834539-title {
        font-size: 18px;
        font-weight: bold;
        font-family: arial;
    }

    .terminal-1640834539-r1 { fill: #1f1f1f;font-weight: bold }
.terminal-1640834539-r2 { fill: #c5c8c6 }
.terminal-1640834539-r3 { fill: #000000 }
.terminal-1640834539-r4 { fill: #000000;font-weight: bold }
.terminal-1640834539-r5 { fill: #1f1f1f }
.terminal-1640834539-r6 { fill: #0178d4;font-weight: bold }
.terminal-1640834539-r7 { fill: #acacac }
    </style>

    <defs>
    <clipPath id="terminal-1640834539-clip-terminal">
      <rect x="0" y="0" width="1341.0" height="779.8" />
    </clipPath>
    <clipPath id="terminal-1640834539-line-0">
    <rect x="0" y="1.5" width="1342" height="24.65"/>
            </clipPath>
<clipPath id="terminal-1640834539-line-1">
    <rect x="0" y="25.9" width="1342" height="24.65"/>
            </clipPath>
<clipPath id="terminal-1640834539-line-2">
    <rect x="0" y="50.3" width="1342" height="24.65"/>
            </clipPath>
<clipPath id="terminal-1640834539-line-3">
    <rect x="0" y="74.7" width="1342" height="24.65"/>
            </clipPath>
<clipPath id="terminal-1640834539-line-4">
    <rect x="0" y="99.1" width="1342" height="24.65"/>
            </clipPath>
<clipPath id="terminal-1640834539-line-5">
    <rect x="0" y="123.5" width="1342" height="24.65"/>
            </clipPath>
<clipPath id="terminal-1640834539-line-6">
    <rect x="0" y="147.9" width="1342" height="24.65"/>
            </clipPath>
<clipPath id="terminal-1640834539-line-7">
    <rect x="0" y="172.3" width="1342" height="24.65"/>
            </clipPath>
<clipPath id="terminal-1640834539-line-8">
    <rect x="0" y="196.7" width="1342" height="24.65"/>
            </clipPath>
<clipPath id="terminal-1640834539-line-9">
    <rect x="0" y="221.1" width="1342" height="24.65"/>
            </clipPath>
<clipPath id="terminal-1640834539-line-10">
    <rect x="0" y="245.5" width="1342" height="24.65"/>
            </clipPath>
<clipPath id="terminal-1640834539-line-11">
    <rect x="0" y="269.9" width="1342" height="24.65"/>
            </clipPath>
<clipPath id="terminal-1640834539-line-12">
    <rect x="0" y="294.3" width="1342" height="24.65"/>
            </clipPath>
<clipPath id="terminal-1640834539-line-13">
    <rect x="0" y="318.7" width="1342" height="24.65"/>
            </clipPath>
<clipPath id="terminal-1640834539-line-14">
    <rect x="0" y="343.1" width="1342" height="24.65"/>
            </clipPath>
<clipPath id="terminal-1640834539-line-15">
    <rect x="0" y="367.5" width="1342" height="24.65"/>
            </clipPath>
<clipPath id="terminal-1640834539-line-16">
    <rect x="0" y="391.9" width="1342" height="24.65"/>
            </clipPath>
<clipPath id="terminal-1640834539-line-17">
    <rect x="0" y="416.3" width="1342" height="24.65"/>
            </clipPath>
<clipPath id="terminal-1640834539-line-18">
    <rect x="0" y="440.7" width="1342" height="24.65"/>
            </clipPath>
<clipPath id="terminal-1640834539-line-19">
    <rect x="0" y="465.1" width="1342" height="24.65"/>
            </clipPath>
<clipPath id="terminal-1640834539-line-20">
    <rect x="0" y="489.5" width="1342" height="24.65"/>
            </clipPath>
<clipPath id="terminal-1640834539-line-21">
    <rect x="0" y="513.9" width="1342" height="24.65"/>
            </clipPath>
<clipPath id="terminal-1640834539-line-22">
    <rect x="0" y="538.3" width="1342" height="24.65"/>
            </clipPath>
<clipPath id="terminal-1640834539-line-23">
    <rect x="0" y="562.7" width="1342" height="24.65"/>
            </clipPath>
<clipPath id="terminal-1640834539-line-24">
    <rect x="0" y="587.1" width="1342" height="24.65"/>
            </clipPath>
<clipPath id="terminal-1640834539-line-25">
    <rect x="0" y="611.5" width="1342" height="24.65"/>
            </clipPath>
<clipPath id="terminal-1640834539-line-26">
    <rect x="0" y="635.9" width="1342" height="24.65"/>
            </clipPath>
<clipPath id="terminal-1640834539-line-27">
    <rect x="0" y="660.3" width="1342" height="24.65"/>
            </clipPath>
<clipPath id="terminal-1640834539-line-28">
    <rect x="0" y="684.7" width="1342" height="24.65"/>
            </clipPath>
<clipPath id="terminal-1640834539-line-29">
    <rect x="0" y="709.1" width="1342" height="24.65"/>
            </clipPath>
<clipPath id="terminal-1640834539-line-30">
    <rect x="0" y="733.5" width="1342" height="24.65"/>
            </clipPath>
    </defs>

    <rect fill="#292929" stroke="rgba(255,255,255,0.35)" stroke-width="1" x="1" y="1" width="1358" height="828.8" rx="8"/><text class="terminal-1640834539-title" fill="#c5c8c6" text-anchor="middle" x="679" y="27">Atlas</text>
            <g transform="translate(26,22)">
            <circle cx="0" cy="0" r="7" fill="#ff5f57"/>
            <circle cx="22" cy="0" r="7" fill="#febc2e"/>
            <circle cx="44" cy="0" r="7" fill="#28c840"/>
            </g>
        
    <g transform="translate(9, 41)" clip-path="url(#terminal-1640834539-clip-terminal)">
    <rect fill="#e0e0e0" x="0" y="1.5" width="1342" height="24.65" shape-rendering="crispEdges"/><rect fill="#e0e0e0" x="0" y="25.9" width="634.4" height="24.65" shape-rendering="crispEdges"/><rect fill="#e0e0e0" x="634.4" y="25.9" width="61" height="24.65" shape-rendering="crispEdges"/><rect fill="#e0e0e0" x="695.4" y="25.9" width="646.6" height="24.65" shape-rendering="crispEdges"/><rect fill="#e0e0e0" x="0" y="50.3" width="1342" height="24.65" shape-rendering="crispEdges"/><rect fill="#e0e0e0" x="0" y="74.7" width="12.2" height="24.65" shape-rendering="crispEdges"/><rect fill="#e0e0e0" x="12.2" y="74.7" width="12.2" height="24.65" shape-rendering="crispEdges"/><rect fill="#e0e0e0" x="24.4" y="74.7" width="219.6" height="24.65" shape-rendering="crispEdges"/><rect fill="#e0e0e0" x="244" y="74.7" width="12.2" height="24.65" shape-rendering="crispEdges"/><rect fill="#e0e0e0" x="256.2" y="74.7" width="12.2" height="24.65" shape-rendering="crispEdges"/><rect fill="#e0e0e0" x="268.4" y="74.7" width="12.2" height="24.65" shape-rendering="crispEdges"/><rect fill="#e0e0e0" x="280.6" y="74.7" width="231.8" height="24.65" shape-rendering="crispEdges"/><rect fill="#e0e0e0" x="512.4" y="74.7" width="12.2" height="24.65" shape-rendering="crispEdges"/><rect fill="#e0e0e0" x="524.6" y="74.7" width="12.2" height="24.65" shape-rendering="crispEdges"/><rect fill="#e0e0e0" x="536.8" y="74.7" width="12.2" height="24.65" shape-rendering="crispEdges"/><rect fill="#e0e0e0" x="549" y="74.7" width="231.8" height="24.65" shape-rendering="crispEdges"/><rect fill="#e0e0e0" x="780.8" y="74.7" width="12.2" height="24.65" shape-rendering="crispEdges"/><rect fill="#e0e0e0" x="793" y="74.7" width="12.2" height="24.65" shape-rendering="crispEdges"/><rect fill="#e0e0e0" x="805.2" y="74.7" width="12.2" height="24.65" shape-rendering="crispEdges"/><rect fill="#e0e0e0" x="817.4" y="74.7" width="231.8" height="24.65" shape-rendering="crispEdges"/><rect fill="#e0e0e0" x="1049.2" y="74.7" width="12.2" height="24.65" shape-rendering="crispEdges"/><rect fill="#e0e0e0" x="1061.4" y="74.7" width="12.2" height="24.65" shape-rendering="crispEdges"/><rect fill="#e0e0e0" x="1073.6" y="74.7" width="12.2" height="24.65" shape-rendering="crispEdges"/><rect fill="#e0e0e0" x="1085.8" y="74.7" width="231.8" height="24.65" shape-rendering="crispEdges"/><rect fill="#e0e0e0" x="1317.6" y="74.7" width="12.2" height="24.65" shape-rendering="crispEdges"/><rect fill="#e0e0e0" x="1329.8" y="74.7" width="12.2" height="24.65" shape-rendering="crispEdges"/><rect fill="#e0e0e0" x="0" y="99.1" width="12.2" height="24.65" shape-rendering="crispEdges"/><rect fill="#e0e0e0" x="12.2" y="99.1" width="12.2" height="24.65" shape-rendering="crispEdges"/><rect fill="#e0e0e0" x="24.4" y="99.1" width="12.2" height="24.65" shape-rendering="crispEdges"/><rect fill="#e0e0e0" x="36.6" y="99.1" width="146.4" height="24.65" shape-rendering="crispEdges"/><rect fill="#e0e0e0" x="183" y="99.1" width="48.8" height="24.65" shape-rendering="crispEdges"/><rect fill="#e0e0e0" x="231.8" y="99.1" width="12.2" height="24.65" shape-rendering="crispEdges"/><rect fill="#e0e0e0" x="244" y="99.1" width="12.2" height="24.65" shape-rendering="crispEdges"/><rect fill="#e0e0e0" x="256.2" y="99.1" width="12.2" height="24.65" shape-rendering="crispEdges"/><rect fill="#e0e0e0" x="268.4" y="99.1" width="12.2" height="24.65" shape-rendering="crispEdges"/><rect fill="#e0e0e0" x="280.6" y="99.1" width="12.2" height="24.65" shape-rendering="crispEdges"/><rect fill="#e0e0e0" x="292.8" y="99.1" width="61" height="24.65" shape-rendering="crispEdges"/><rect fill="#e0e0e0" x="353.8" y="99.1" width="146.4" height="24.65" shape-rendering="crispEdges"/><rect fill="#e0e0e0" x="500.2" y="99.1" width="12.2" height="24.65" shape-rendering="crispEdges"/><rect fill="#e0e0e0" x="512.4" y="99.1" width="12.2" height="24.65" shape-rendering="crispEdges"/><rect fill="#e0e0e0" x="524.6" y="99.1" width="12.2" height="24.65" shape-rendering="crispEdges"/><rect fill="#e0e0e0" x="536.8" y="99.1" width="12.2" height="24.65" shape-rendering="crispEdges"/><rect fill="#e0e0e0" x="549" y="99.1" width="12.2" height="24.65" shape-rendering="crispEdges"/><rect fill="#e0e0e0" x="561.2" y="99.1" width="48.8" height="24.65" shape-rendering="crispEdges"/><rect fill="#e0e0e0" x="610" y="99.1" width="158.6" height="24.65" shape-rendering="crispEdges"/><rect fill="#e0e0e0" x="768.6" y="99.1" width="12.2" height="24.65" shape-rendering="crispEdges"/><rect fill="#e0e0e0" x="780.8" y="99.1" width="12.2" height="24.65" shape-rendering="crispEdges"/><rect fill="#e0e0e0" x="793" y="99.1" width="12.2" height="24.65" shape-rendering="crispEdges"/><rect fill="#e0e0e0" x="805.2" y="99.1" width="12.2" height="24.65" shape-rendering="crispEdges"/><rect fill="#e0e0e0" x="817.4" y="99.1" width="12.2" height="24.65" shape-rendering="crispEdges"/><rect fill="#e0e0e0" x="829.6" y="99.1" width="109.8" height="24.65" shape-rendering="crispEdges"/><rect fill="#e0e0e0" x="939.4" y="99.1" width="97.6" height="24.65" shape-rendering="crispEdges"/><rect fill="#e0e0e0" x="1037" y="99.1" width="12.2" height="24.65" shape-rendering="crispEdges"/><rect fill="#e0e0e0" x="1049.2" y="99.1" width="12.2" height="24.65" shape-rendering="crispEdges"/><rect fill="#e0e0e0" x="1061.4" y="99.1" width="12.2" height="24.65" shape-rendering="crispEdges"/><rect fill="#e0e0e0" x="1073.6" y="99.1" width="12.2" height="24.65" shape-rendering="crispEdges"/><rect fill="#e0e0e0" x="1085.8" y="99.1" width="12.2" height="24.65" shape-rendering="crispEdges"/><rect fill="#e0e0e0" x="1098" y="99.1" width="85.4" height="24.65" shape-rendering="crispEdges"/><rect fill="#e0e0e0" x="1183.4" y="99.1" width="122" height="24.65" shape-rendering="crispEdges"/><rect fill="#e0e0e0" x="1305.4" y="99.1" width="12.2" height="24.65" shape-rendering="crispEdges"/><rect fill="#e0e0e0" x="1317.6" y="99.1" width="12.2" height="24.65" shape-rendering="crispEdges"/><rect fill="#e0e0e0" x="1329.8" y="99.1" width="12.2" height="24.65" shape-rendering="crispEdges"/><rect fill="#e0e0e0" x="0" y="123.5" width="12.2" height="24.65" shape-rendering="crispEdges"/><rect fill="#e0e0e0" x="12.2" y="123.5" width="12.2" height="24.65" shape-rendering="crispEdges"/><rect fill="#e0e0e0" x="24.4" y="123.5" width="12.2" height="24.65" shape-rendering="crispEdges"/><rect fill="#e0e0e0" x="36.6" y="123.5" width="73.2" height="24.65" shape-rendering="crispEdges"/><rect fill="#e0e0e0" x="109.8" y="123.5" width="122" height="24.65" shape-rendering="crispEdges"/><rect fill="#e0e0e0" x="231.8" y="123.5" width="12.2" height="24.65" shape-rendering="crispEdges"/><rect fill="#e0e0e0" x="244" y="123.5" width="12.2" height="24.65" shape-rendering="crispEdges"/><rect fill="#e0e0e0" x="256.2" y="123.5" width="12.2" height="24.65" shape-rendering="crispEdges"/><rect fill="#e0e0e0" x="268.4" y="123.5" width="12.2" height="24.65" shape-rendering="crispEdges"/><rect fill="#e0e0e0" x="280.6" y="123.5" width="12.2" height="24.65" shape-rendering="crispEdges"/><rect fill="#e0e0e0" x="292.8" y="123.5" width="12.2" height="24.65" shape-rendering="crispEdges"/><rect fill="#e0e0e0" x="305" y="123.5" width="195.2" height="24.65" shape-rendering="crispEdges"/><rect fill="#e0e0e0" x="500.2" y="123.5" width="12.2" height="24.65" shape-rendering="crispEdges"/><rect fill="#e0e0e0" x="512.4" y="123.5" width="12.2" height="24.65" shape-rendering="crispEdges"/><rect fill="#e0e0e0" x="524.6" y="123.5" width="12.2" height="24.65" shape-rendering="crispEdges"/><rect fill="#e0e0e0" x="536.8" y="123.5" width="12.2" height="24.65" shape-rendering="crispEdges"/><rect fill="#e0e0e0" x="549" y="123.5" width="12.2" height="24.65" shape-rendering="crispEdges"/><rect fill="#e0e0e0" x="561.2" y="123.5" width="12.2" height="24.65" shape-rendering="crispEdges"/><rect fill="#e0e0e0" x="573.4" y="123.5" width="195.2" height="24.65" shape-rendering="crispEdges"/><rect fill="#e0e0e0" x="768.6" y="123.5" width="12.2" height="24.65" shape-rendering="crispEdges"/><rect fill="#e0e0e0" x="780.8" y="123.5" width="12.2" height="24.65" shape-rendering="crispEdges"/><rect fill="#e0e0e0" x="793" y="123.5" width="12.2" height="24.65" shape-rendering="crispEdges"/><rect fill="#e0e0e0" x="805.2" y="123.5" width="12.2" height="24.65" shape-rendering="crispEdges"/><rect fill="#e0e0e0" x="817.4" y="123.5" width="12.2" height="24.65" shape-rendering="crispEdges"/><rect fill="#e0e0e0" x="829.6" y="123.5" width="12.2" height="24.65" shape-rendering="crispEdges"/><rect fill="#e0e0e0" x="841.8" y="123.5" width="195.2" height="24.65" shape-rendering="crispEdges"/><rect fill="#e0e0e0" x="1037" y="123.5" width="12.2" height="24.65" shape-rendering="crispEdges"/><rect fill="#e0e0e0" x="1049.2" y="123.5" width="12.2" height="24.65" shape-rendering="crispEdges"/><rect fill="#e0e0e0" x="1061.4" y="123.5" width="12.2" height="24.65" shape-rendering="crispEdges"/><rect fill="#e0e0e0" x="1073.6" y="123.5" width="12.2" height="24.65" shape-rendering="crispEdges"/><rect fill="#e0e0e0" x="1085.8" y="123.5" width="12.2" height="24.65" shape-rendering="crispEdges"/><rect fill="#e0e0e0" x="1098" y="123.5" width="146.4" height="24.65" shape-rendering="crispEdges"/><rect fill="#e0e0e0" x="1244.4" y="123.5" width="61" height="24.65" shape-rendering="crispEdges"/><rect fill="#e0e0e0" x="1305.4" y="123.5" width="12.2" height="24.65" shape-rendering="crispEdges"/><rect fill="#e0e0e0" x="1317.6" y="123.5" width="12.2" height="24.65" shape-rendering="crispEdges"/><rect fill="#e0e0e0" x="1329.8" y="123.5" width="12.2" height="24.65" shape-rendering="crispEdges"/><rect fill="#e0e0e0" x="0" y="147.9" width="12.2" height="24.65" shape-rendering="crispEdges"/><rect fill="#e0e0e0" x="12.2" y="147.9" width="12.2" height="24.65" shape-rendering="crispEdges"/><rect fill="#e0e0e0" x="24.4" y="147.9" width="12.2" height="24.65" shape-rendering="crispEdges"/><rect fill="#e0e0e0" x="36.6" y="147.9" width="122" height="24.65" shape-rendering="crispEdges"/><rect fill="#e0e0e0" x="158.6" y="147.9" width="73.2" height="24.65" shape-rendering="crispEdges"/><rect fill="#e0e0e0" x="231.8" y="147.9" width="12.2" height="24.65" shape-rendering="crispEdges"/><rect fill="#e0e0e0" x="244" y="147.9" width="12.2" height="24.65" shape-rendering="crispEdges"/><rect fill="#e0e0e0" x="256.2" y="147.9" width="12.2" height="24.65" shape-rendering="crispEdges"/><rect fill="#e0e0e0" x="268.4" y="147.9" width="12.2" height="24.65" shape-rendering="crispEdges"/><rect fill="#e0e0e0" x="280.6" y="147.9" width="12.2" height="24.65" shape-rendering="crispEdges"/><rect fill="#e0e0e0" x="292.8" y="147.9" width="158.6" height="24.65" shape-rendering="crispEdges"/><rect fill="#e0e0e0" x="451.4" y="147.9" width="48.8" height="24.65" shape-rendering="crispEdges"/><rect fill="#e0e0e0" x="500.2" y="147.9" width="12.2" height="24.65" shape-rendering="crispEdges"/><rect fill="#e0e0e0" x="512.4" y="147.9" width="12.2" height="24.65" shape-rendering="crispEdges"/><rect fill="#e0e0e0" x="524.6" y="147.9" width="12.2" height="24.65" shape-rendering="crispEdges"/><rect fill="#e0e0e0" x="536.8" y="147.9" width="12.2" height="24.65" shape-rendering="crispEdges"/><rect fill="#e0e0e0" x="549" y="147.9" width="12.2" height="24.65" shape-rendering="crispEdges"/><rect fill="#e0e0e0" x="561.2" y="147.9" width="183" height="24.65" shape-rendering="crispEdges"/><rect fill="#e0e0e0" x="744.2" y="147.9" width="24.4" height="24.65" shape-rendering="crispEdges"/><rect fill="#e0e0e0" x="768.6" y="147.9" width="12.2" height="24.65" shape-rendering="crispEdges"/><rect fill="#e0e0e0" x="780.8" y="147.9" width="12.2" height="24.65" shape-rendering="crispEdges"/><rect fill="#e0e0e0" x="793" y="147.9" width="12.2" height="24.65" shape-rendering="crispEdges"/><rect fill="#e0e0e0" x="805.2" y="147.9" width="12.2" height="24.65" shape-rendering="crispEdges"/><rect fill="#e0e0e0" x="817.4" y="147.9" width="12.2" height="24.65" shape-rendering="crispEdges"/><rect fill="#e0e0e0" x="829.6" y="147.9" width="109.8" height="24.65" shape-rendering="crispEdges"/><rect fill="#e0e0e0" x="939.4" y="147.9" width="97.6" height="24.65" shape-rendering="crispEdges"/><rect fill="#e0e0e0" x="1037" y="147.9" width="12.2" height="24.65" shape-rendering="crispEdges"/><rect fill="#e0e0e0" x="1049.2" y="147.9" width="12.2" height="24.65" shape-rendering="crispEdges"/><rect fill="#e0e0e0" x="1061.4" y="147.9" width="12.2" height="24.65" shape-rendering="crispEdges"/><rect fill="#e0e0e0" x="1073.6" y="147.9" width="12.2" height="24.65" shape-rendering="crispEdges"/><rect fill="#e0e0e0" x="1085.8" y="147.9" width="12.2" height="24.65" shape-rendering="crispEdges"/><rect fill="#e0e0e0" x="1098" y="147.9" width="146.4" height="24.65" shape-rendering="crispEdges"/><rect fill="#e0e0e0" x="1244.4" y="147.9" width="61" height="24.65" shape-rendering="crispEdges"/><rect fill="#e0e0e0" x="1305.4" y="147.9" width="12.2" height="24.65" shape-rendering="crispEdges"/><rect fill="#e0e0e0" x="1317.6" y="147.9" width="12.2" height="24.65" shape-rendering="crispEdges"/><rect fill="#e0e0e0" x="1329.8" y="147.9" width="12.2" height="24.65" shape-rendering="crispEdges"/><rect fill="#e0e0e0" x="0" y="172.3" width="12.2" height="24.65" shape-rendering="crispEdges"/><rect fill="#e0e0e0" x="12.2" y="172.3" width="12.2" height="24.65" shape-rendering="crispEdges"/><rect fill="#e0e0e0" x="24.4" y="172.3" width="219.6" height="24.65" shape-rendering="crispEdges"/><rect fill="#e0e0e0" x="244" y="172.3" width="12.2" height="24.65" shape-rendering="crispEdges"/><rect fill="#e0e0e0" x="256.2" y="172.3" width="12.2" height="24.65" shape-rendering="crispEdges"/><rect fill="#e0e0e0" x="268.4" y="172.3" width="12.2" height="24.65" shape-rendering="crispEdges"/><rect fill="#e0e0e0" x="280.6" y="172.3" width="231.8" height="24.65" shape-rendering="crispEdges"/><rect fill="#e0e0e0" x="512.4" y="172.3" width="12.2" height="24.65" shape-rendering="crispEdges"/><rect fill="#e0e0e0" x="524.6" y="172.3" width="12.2" height="24.65" shape-rendering="crispEdges"/><rect fill="#e0e0e0" x="536.8" y="172.3" width="12.2" height="24.65" shape-rendering="crispEdges"/><rect fill="#e0e0e0" x="549" y="172.3" width="231.8" height="24.65" shape-rendering="crispEdges"/><rect fill="#e0e0e0" x="780.8" y="172.3" width="12.2" height="24.65" shape-rendering="crispEdges"/><rect fill="#e0e0e0" x="793" y="172.3" width="12.2" height="24.65" shape-rendering="crispEdges"/><rect fill="#e0e0e0" x="805.2" y="172.3" width="12.2" height="24.65" shape-rendering="crispEdges"/><rect fill="#e0e0e0" x="817.4" y="172.3" width="231.8" height="24.65" shape-rendering="crispEdges"/><rect fill="#e0e0e0" x="1049.2" y="172.3" width="12.2" height="24.65" shape-rendering="crispEdges"/><rect fill="#e0e0e0" x="1061.4" y="172.3" width="12.2" height="24.65" shape-rendering="crispEdges"/><rect fill="#e0e0e0" x="1073.6" y="172.3" width="12.2" height="24.65" shape-rendering="crispEdges"/><rect fill="#e0e0e0" x="1085.8" y="172.3" width="231.8" height="24.65" shape-rendering="crispEdges"/><rect fill="#e0e0e0" x="1317.6" y="172.3" width="12.2" height="24.65" shape-rendering="crispEdges"/><rect fill="#e0e0e0" x="1329.8" y="172.3" width="12.2" height="24.65" shape-rendering="crispEdges"/><rect fill="#e0e0e0" x="0" y="196.7" width="1342" height="24.65" shape-rendering="crispEdges"/><rect fill="#e0e0e0" x="0" y="221.1" width="12.2" height="24.65" shape-rendering="crispEdges"/><rect fill="#e0e0e0" x="12.2" y="221.1" width="1037" height="24.65" shape-rendering="crispEdges"/><rect fill="#e0e0e0" x="1049.2" y="221.1" width="280.6" height="24.65" shape-rendering="crispEdges"/><rect fill="#e0e0e0" x="1329.8" y="221.1" width="12.2" height="24.65" shape-rendering="crispEdges"/><rect fill="#e0e0e0" x="0" y="245.5" width="12.2" height="24.65" shape-rendering="crispEdges"/><rect fill="#e0e0e0" x="12.2" y="245.5" width="1037" height="24.65" shape-rendering="crispEdges"/><rect fill="#e0e0e0" x="1049.2" y="245.5" width="280.6" height="24.65" shape-rendering="crispEdges"/><rect fill="#e0e0e0" x="1329.8" y="245.5" width="12.2" height="24.65" shape-rendering="crispEdges"/><rect fill="#e0e0e0" x="0" y="269.9" width="12.2" height="24.65" shape-rendering="crispEdges"/><rect fill="#e0e0e0" x="12.2" y="269.9" width="1037" height="24.65" shape-rendering="crispEdges"/><rect fill="#e0e0e0" x="1049.2" y="269.9" width="280.6" height="24.65" shape-rendering="crispEdges"/><rect fill="#e0e0e0" x="1329.8" y="269.9" width="12.2" height="24.65" shape-rendering="crispEdges"/><rect fill="#e0e0e0" x="0" y="294.3" width="1342" height="24.65" shape-rendering="crispEdges"/><rect fill="#e0e0e0" x="0" y="318.7" width="12.2" height="24.65" shape-rendering="crispEdges"/><rect fill="#e0e0e0" x="12.2" y="318.7" width="48.8" height="24.65" shape-rendering="crispEdges"/><rect fill="#e0e0e0" x="61" y="318.7" width="1268.8" height="24.65" shape-rendering="crispEdges"/><rect fill="#e0e0e0" x="1329.8" y="318.7" width="12.2" height="24.65" shape-rendering="crispEdges"/><rect fill="#e0e0e0" x="0" y="343.1" width="12.2" height="24.65" shape-rendering="crispEdges"/><rect fill="#e0e0e0" x="12.2" y="343.1" width="610" height="24.65" shape-rendering="crispEdges"/><rect fill="#e0e0e0" x="622.2" y="343.1" width="707.6" height="24.65" shape-rendering="crispEdges"/><rect fill="#e0e0e0" x="1329.8" y="343.1" width="12.2" height="24.65" shape-rendering="crispEdges"/><rect fill="#e0e0e0" x="0" y="367.5" width="12.2" height="24.65" shape-rendering="crispEdges"/><rect fill="#e0e0e0" x="12.2" y="367.5" width="915" height="24.65" shape-rendering="crispEdges"/><rect fill="#e0e0e0" x="927.2" y="367.5" width="402.6" height="24.65" shape-rendering="crispEdges"/><rect fill="#e0e0e0" x="1329.8" y="367.5" width="12.2" height="24.65" shape-rendering="crispEdges"/><rect fill="#e0e0e0" x="0" y="391.9" width="12.2" height="24.65" shape-rendering="crispEdges"/><rect fill="#e0e0e0" x="12.2" y="391.9" width="597.8" height="24.65" shape-rendering="crispEdges"/><rect fill="#e0e0e0" x="610" y="391.9" width="719.8" height="24.65" shape-rendering="crispEdges"/><rect fill="#e0e0e0" x="1329.8" y="391.9" width="12.2" height="24.65" shape-rendering="crispEdges"/><rect fill="#e0e0e0" x="0" y="416.3" width="12.2" height="24.65" shape-rendering="crispEdges"/><rect fill="#e0e0e0" x="12.2" y="416.3" width="402.6" height="24.65" shape-rendering="crispEdges"/><rect fill="#e0e0e0" x="414.8" y="416.3" width="915" height="24.65" shape-rendering="crispEdges"/><rect fill="#e0e0e0" x="1329.8" y="416.3" width="12.2" height="24.65" shape-rendering="crispEdges"/><rect fill="#e0e0e0" x="0" y="440.7" width="12.2" height="24.65" shape-rendering="crispEdges"/><rect fill="#e0e0e0" x="12.2" y="440.7" width="402.6" height="24.65" shape-rendering="crispEdges"/><rect fill="#e0e0e0" x="414.8" y="440.7" width="915" height="24.65" shape-rendering="crispEdges"/><rect fill="#e0e0e0" x="1329.8" y="440.7" width="12.2" height="24.65" shape-rendering="crispEdges"/><rect fill="#e0e0e0" x="0" y="465.1" width="12.2" height="24.65" shape-rendering="crispEdges"/><rect fill="#e0e0e0" x="12.2" y="465.1" width="402.6" height="24.65" shape-rendering="crispEdges"/><rect fill="#e0e0e0" x="414.8" y="465.1" width="915" height="24.65" shape-rendering="crispEdges"/><rect fill="#e0e0e0" x="1329.8" y="465.1" width="12.2" height="24.65" shape-rendering="crispEdges"/><rect fill="#e0e0e0" x="0" y="489.5" width="1342" height="24.65" shape-rendering="crispEdges"/><rect fill="#e0e0e0" x="0" y="513.9" width="1342" height="24.65" shape-rendering="crispEdges"/><rect fill="#e0e0e0" x="0" y="538.3" width="1342" height="24.65" shape-rendering="crispEdges"/><rect fill="#e0e0e0" x="0" y="562.7" width="1342" height="24.65" shape-rendering="crispEdges"/><rect fill="#e0e0e0" x="0" y="587.1" width="1342" height="24.65" shape-rendering="crispEdges"/><rect fill="#e0e0e0" x="0" y="611.5" width="1342" height="24.65" shape-rendering="crispEdges"/><rect fill="#e0e0e0" x="0" y="635.9" width="1342" height="24.65" shape-rendering="crispEdges"/><rect fill="#e0e0e0" x="0" y="660.3" width="1342" height="24.65" shape-rendering="crispEdges"/><rect fill="#e0e0e0" x="0" y="684.7" width="1342" height="24.65" shape-rendering="crispEdges"/><rect fill="#e0e0e0" x="0" y="709.1" width="1342" height="24.65" shape-rendering="crispEdges"/><rect fill="#e0e0e0" x="0" y="733.5" width="1342" height="24.65" shape-rendering="crispEdges"/><rect fill="#d0d0d0" x="0" y="757.9" width="36.6" height="24.65" shape-rendering="crispEdges"/><rect fill="#d0d0d0" x="36.6" y="757.9" width="61" height="24.65" shape-rendering="crispEdges"/><rect fill="#d0d0d0" x="97.6" y="757.9" width="36.6" height="24.65" shape-rendering="crispEdges"/><rect fill="#d0d0d0" x="134.2" y="757.9" width="122" height="24.65" shape-rendering="crispEdges"/><rect fill="#d0d0d0" x="256.2" y="757.9" width="36.6" height="24.65" shape-rendering="crispEdges"/><rect fill="#d0d0d0" x="292.8" y="757.9" width="122" height="24.65" shape-rendering="crispEdges"/><rect fill="#d0d0d0" x="414.8" y="757.9" width="36.6" height="24.65" shape-rendering="crispEdges"/><rect fill="#d0d0d0" x="451.4" y="757.9" width="61" height="24.65" shape-rendering="crispEdges"/><rect fill="#d0d0d0" x="512.4" y="757.9" width="36.6" height="24.65" shape-rendering="crispEdges"/><rect fill="#d0d0d0" x="549" y="757.9" width="85.4" height="24.65" shape-rendering="crispEdges"/><rect fill="#d0d0d0" x="634.4" y="757.9" width="36.6" height="24.65" shape-rendering="crispEdges"/><rect fill="#d0d0d0" x="671" y="757.9" width="61" height="24.65" shape-rendering="crispEdges"/><rect fill="#d0d0d0" x="732" y="757.9" width="36.6" height="24.65" shape-rendering="crispEdges"/><rect fill="#d0d0d0" x="768.6" y="757.9" width="61" height="24.65" shape-rendering="crispEdges"/><rect fill="#d0d0d0" x="829.6" y="757.9" width="36.6" height="24.65" shape-rendering="crispEdges"/><rect fill="#d0d0d0" x="866.2" y="757.9" width="109.8" height="24.65" shape-rendering="crispEdges"/><rect fill="#d0d0d0" x="976" y="757.9" width="36.6" height="24.65" shape-rendering="crispEdges"/><rect fill="#d0d0d0" x="1012.6" y="757.9" width="97.6" height="24.65" shape-rendering="crispEdges"/><rect fill="#d0d0d0" x="1110.2" y="757.9" width="36.6" height="24.65" shape-rendering="crispEdges"/><rect fill="#d0d0d0" x="1146.8" y="757.9" width="48.8" height="24.65" shape-rendering="crispEdges"/><rect fill="#d0d0d0" x="1195.6" y="757.9" width="12.2" height="24.65" shape-rendering="crispEdges"/><rect fill="#d0d0d0" x="1207.8" y="757.9" width="12.2" height="24.65" shape-rendering="crispEdges"/><rect fill="#d0d0d0" x="1220" y="757.9" width="12.2" height="24.65" shape-rendering="crispEdges"/><rect fill="#d0d0d0" x="1232.2" y="757.9" width="85.4" height="24.65" shape-rendering="crispEdges"/><rect fill="#d0d0d0" x="1317.6" y="757.9" width="12.2" height="24.65" shape-rendering="crispEdges"/><rect fill="#d0d0d0" x="1329.8" y="757.9" width="12.2" height="24.65" shape-rendering="crispEdges"/>
    <g class="terminal-1640834539-matrix">
    <text class="terminal-1640834539-r2" x="1342" y="20" textLength="12.2" clip-path="url(#terminal-1640834539-line-0)">
</text><text class="terminal-1640834539-r1" x="634.4" y="44.4" textLength="61" clip-path="url(#terminal-1640834539-line-1)">ATLAS</text><text class="terminal-1640834539-r2" x="1342" y="44.4" textLength="12.2" clip-path="url(#terminal-1640834539-line-1)">
</text><text class="terminal-1640834539-r2" x="1342" y="68.8" textLength="12.2" clip-path="url(#terminal-1640834539-line-2)">
</text><text class="terminal-1640834539-r3" x="12.2" y="93.2" textLength="12.2" clip-path="url(#terminal-1640834539-line-3)">┏</text><text class="terminal-1640834539-r3" x="24.4" y="93.2" textLength="219.6" clip-path="url(#terminal-1640834539-line-3)">━━━━━━━━━━━━━━━━━━</text><text class="terminal-1640834539-r3" x="244" y="93.2" textLength="12.2" clip-path="url(#terminal-1640834539-line-3)">┓</text><text class="terminal-1640834539-r3" x="268.4" y="93.2" textLength="12.2" clip-path="url(#terminal-1640834539-line-3)">┏</text><text class="terminal-1640834539-r3" x="280.6" y="93.2" textLength="231.8" clip-path="url(#terminal-1640834539-line-3)">━━━━━━━━━━━━━━━━━━━</text><text class="terminal-1640834539-r3" x="512.4" y="93.2" textLength="12.2" clip-path="url(#terminal-1640834539-line-3)">┓</text><text class="terminal-1640834539-r3" x="536.8" y="93.2" textLength="12.2" clip-path="url(#terminal-1640834539-line-3)">┏</text><text class="terminal-1640834539-r3" x="549" y="93.2" textLength="231.8" clip-path="url(#terminal-1640834539-line-3)">━━━━━━━━━━━━━━━━━━━</text><text class="terminal-1640834539-r3" x="780.8" y="93.2" textLength="12.2" clip-path="url(#terminal-1640834539-line-3)">┓</text><text class="terminal-1640834539-r3" x="805.2" y="93.2" textLength="12.2" clip-path="url(#terminal-1640834539-line-3)">┏</text><text class="terminal-1640834539-r3" x="817.4" y="93.2" textLength="231.8" clip-path="url(#terminal-1640834539-line-3)">━━━━━━━━━━━━━━━━━━━</text><text class="terminal-1640834539-r3" x="1049.2" y="93.2" textLength="12.2" clip-path="url(#terminal-1640834539-line-3)">┓</text><text class="terminal-1640834539-r3" x="1073.6" y="93.2" textLength="12.2" clip-path="url(#terminal-1640834539-line-3)">┏</text><text class="terminal-1640834539-r3" x="1085.8" y="93.2" textLength="231.8" clip-path="url(#terminal-1640834539-line-3)">━━━━━━━━━━━━━━━━━━━</text><text class="terminal-1640834539-r3" x="1317.6" y="93.2" textLength="12.2" clip-path="url(#terminal-1640834539-line-3)">┓</text><text class="terminal-1640834539-r2" x="1342" y="93.2" textLength="12.2" clip-path="url(#terminal-1640834539-line-3)">
</text><text class="terminal-1640834539-r3" x="12.2" y="117.6" textLength="12.2" clip-path="url(#terminal-1640834539-line-4)">┃</text><text class="terminal-1640834539-r4" x="36.6" y="117.6" textLength="146.4" clip-path="url(#terminal-1640834539-line-4)">Fleet&#160;Health</text><text class="terminal-1640834539-r3" x="244" y="117.6" textLength="12.2" clip-path="url(#terminal-1640834539-line-4)">┃</text><text class="terminal-1640834539-r3" x="268.4" y="117.6" textLength="12.2" clip-path="url(#terminal-1640834539-line-4)">┃</text><text class="terminal-1640834539-r4" x="292.8" y="117.6" textLength="61" clip-path="url(#terminal-1640834539-line-4)">Hosts</text><text class="terminal-1640834539-r3" x="512.4" y="117.6" textLength="12.2" clip-path="url(#terminal-1640834539-line-4)">┃</text><text class="terminal-1640834539-r3" x="536.8" y="117.6" textLength="12.2" clip-path="url(#terminal-1640834539-line-4)">┃</text><text class="terminal-1640834539-r4" x="561.2" y="117.6" textLength="48.8" clip-path="url(#terminal-1640834539-line-4)">Apps</text><text class="terminal-1640834539-r3" x="780.8" y="117.6" textLength="12.2" clip-path="url(#terminal-1640834539-line-4)">┃</text><text class="terminal-1640834539-r3" x="805.2" y="117.6" textLength="12.2" clip-path="url(#terminal-1640834539-line-4)">┃</text><text class="terminal-1640834539-r4" x="829.6" y="117.6" textLength="109.8" clip-path="url(#terminal-1640834539-line-4)">Incidents</text><text class="terminal-1640834539-r3" x="1049.2" y="117.6" textLength="12.2" clip-path="url(#terminal-1640834539-line-4)">┃</text><text class="terminal-1640834539-r3" x="1073.6" y="117.6" textLength="12.2" clip-path="url(#terminal-1640834539-line-4)">┃</text><text class="terminal-1640834539-r4" x="1098" y="117.6" textLength="85.4" clip-path="url(#terminal-1640834539-line-4)">Deploys</text><text class="terminal-1640834539-r3" x="1317.6" y="117.6" textLength="12.2" clip-path="url(#terminal-1640834539-line-4)">┃</text><text class="terminal-1640834539-r2" x="1342" y="117.6" textLength="12.2" clip-path="url(#terminal-1640834539-line-4)">
</text><text class="terminal-1640834539-r3" x="12.2" y="142" textLength="12.2" clip-path="url(#terminal-1640834539-line-5)">┃</text><text class="terminal-1640834539-r4" x="36.6" y="142" textLength="73.2" clip-path="url(#terminal-1640834539-line-5)">90/100</text><text class="terminal-1640834539-r3" x="244" y="142" textLength="12.2" clip-path="url(#terminal-1640834539-line-5)">┃</text><text class="terminal-1640834539-r3" x="268.4" y="142" textLength="12.2" clip-path="url(#terminal-1640834539-line-5)">┃</text><text class="terminal-1640834539-r4" x="292.8" y="142" textLength="12.2" clip-path="url(#terminal-1640834539-line-5)">3</text><text class="terminal-1640834539-r3" x="512.4" y="142" textLength="12.2" clip-path="url(#terminal-1640834539-line-5)">┃</text><text class="terminal-1640834539-r3" x="536.8" y="142" textLength="12.2" clip-path="url(#terminal-1640834539-line-5)">┃</text><text class="terminal-1640834539-r4" x="561.2" y="142" textLength="12.2" clip-path="url(#terminal-1640834539-line-5)">3</text><text class="terminal-1640834539-r3" x="780.8" y="142" textLength="12.2" clip-path="url(#terminal-1640834539-line-5)">┃</text><text class="terminal-1640834539-r3" x="805.2" y="142" textLength="12.2" clip-path="url(#terminal-1640834539-line-5)">┃</text><text class="terminal-1640834539-r4" x="829.6" y="142" textLength="12.2" clip-path="url(#terminal-1640834539-line-5)">1</text><text class="terminal-1640834539-r3" x="1049.2" y="142" textLength="12.2" clip-path="url(#terminal-1640834539-line-5)">┃</text><text class="terminal-1640834539-r3" x="1073.6" y="142" textLength="12.2" clip-path="url(#terminal-1640834539-line-5)">┃</text><text class="terminal-1640834539-r4" x="1098" y="142" textLength="146.4" clip-path="url(#terminal-1640834539-line-5)">1&#160;app&#160;behind</text><text class="terminal-1640834539-r3" x="1317.6" y="142" textLength="12.2" clip-path="url(#terminal-1640834539-line-5)">┃</text><text class="terminal-1640834539-r2" x="1342" y="142" textLength="12.2" clip-path="url(#terminal-1640834539-line-5)">
</text><text class="terminal-1640834539-r3" x="12.2" y="166.4" textLength="12.2" clip-path="url(#terminal-1640834539-line-6)">┃</text><text class="terminal-1640834539-r3" x="36.6" y="166.4" textLength="122" clip-path="url(#terminal-1640834539-line-6)">1&#160;affected</text><text class="terminal-1640834539-r3" x="244" y="166.4" textLength="12.2" clip-path="url(#terminal-1640834539-line-6)">┃</text><text class="terminal-1640834539-r3" x="268.4" y="166.4" textLength="12.2" clip-path="url(#terminal-1640834539-line-6)">┃</text><text class="terminal-1640834539-r3" x="292.8" y="166.4" textLength="158.6" clip-path="url(#terminal-1640834539-line-6)">all&#160;reachable</text><text class="terminal-1640834539-r3" x="512.4" y="166.4" textLength="12.2" clip-path="url(#terminal-1640834539-line-6)">┃</text><text class="terminal-1640834539-r3" x="536.8" y="166.4" textLength="12.2" clip-path="url(#terminal-1640834539-line-6)">┃</text><text class="terminal-1640834539-r3" x="561.2" y="166.4" textLength="183" clip-path="url(#terminal-1640834539-line-6)">+3&#160;tenant&#160;sites</text><text class="terminal-1640834539-r3" x="780.8" y="166.4" textLength="12.2" clip-path="url(#terminal-1640834539-line-6)">┃</text><text class="terminal-1640834539-r3" x="805.2" y="166.4" textLength="12.2" clip-path="url(#terminal-1640834539-line-6)">┃</text><text class="terminal-1640834539-r3" x="829.6" y="166.4" textLength="109.8" clip-path="url(#terminal-1640834539-line-6)">1&#160;warning</text><text class="terminal-1640834539-r3" x="1049.2" y="166.4" textLength="12.2" clip-path="url(#terminal-1640834539-line-6)">┃</text><text class="terminal-1640834539-r3" x="1073.6" y="166.4" textLength="12.2" clip-path="url(#terminal-1640834539-line-6)">┃</text><text class="terminal-1640834539-r3" x="1098" y="166.4" textLength="146.4" clip-path="url(#terminal-1640834539-line-6)">shopfront&#160;▲3</text><text class="terminal-1640834539-r3" x="1317.6" y="166.4" textLength="12.2" clip-path="url(#terminal-1640834539-line-6)">┃</text><text class="terminal-1640834539-r2" x="1342" y="166.4" textLength="12.2" clip-path="url(#terminal-1640834539-line-6)">
</text><text class="terminal-1640834539-r3" x="12.2" y="190.8" textLength="12.2" clip-path="url(#terminal-1640834539-line-7)">┗</text><text class="terminal-1640834539-r3" x="24.4" y="190.8" textLength="219.6" clip-path="url(#terminal-1640834539-line-7)">━━━━━━━━━━━━━━━━━━</text><text class="terminal-1640834539-r3" x="244" y="190.8" textLength="12.2" clip-path="url(#terminal-1640834539-line-7)">┛</text><text class="terminal-1640834539-r3" x="268.4" y="190.8" textLength="12.2" clip-path="url(#terminal-1640834539-line-7)">┗</text><text class="terminal-1640834539-r3" x="280.6" y="190.8" textLength="231.8" clip-path="url(#terminal-1640834539-line-7)">━━━━━━━━━━━━━━━━━━━</text><text class="terminal-1640834539-r3" x="512.4" y="190.8" textLength="12.2" clip-path="url(#terminal-1640834539-line-7)">┛</text><text class="terminal-1640834539-r3" x="536.8" y="190.8" textLength="12.2" clip-path="url(#terminal-1640834539-line-7)">┗</text><text class="terminal-1640834539-r3" x="549" y="190.8" textLength="231.8" clip-path="url(#terminal-1640834539-line-7)">━━━━━━━━━━━━━━━━━━━</text><text class="terminal-1640834539-r3" x="780.8" y="190.8" textLength="12.2" clip-path="url(#terminal-1640834539-line-7)">┛</text><text class="terminal-1640834539-r3" x="805.2" y="190.8" textLength="12.2" clip-path="url(#terminal-1640834539-line-7)">┗</text><text class="terminal-1640834539-r3" x="817.4" y="190.8" textLength="231.8" clip-path="url(#terminal-1640834539-line-7)">━━━━━━━━━━━━━━━━━━━</text><text class="terminal-1640834539-r3" x="1049.2" y="190.8" textLength="12.2" clip-path="url(#terminal-1640834539-line-7)">┛</text><text class="terminal-1640834539-r3" x="1073.6" y="190.8" textLength="12.2" clip-path="url(#terminal-1640834539-line-7)">┗</text><text class="terminal-1640834539-r3" x="1085.8" y="190.8" textLength="231.8" clip-path="url(#terminal-1640834539-line-7)">━━━━━━━━━━━━━━━━━━━</text><text class="terminal-1640834539-r3" x="1317.6" y="190.8" textLength="12.2" clip-path="url(#terminal-1640834539-line-7)">┛</text><text class="terminal-1640834539-r2" x="1342" y="190.8" textLength="12.2" clip-path="url(#terminal-1640834539-line-7)">
</text><text class="terminal-1640834539-r2" x="1342" y="215.2" textLength="12.2" clip-path="url(#terminal-1640834539-line-8)">
</text><text class="terminal-1640834539-r5" x="12.2" y="239.6" textLength="1037" clip-path="url(#terminal-1640834539-line-9)">●&#160;sites-1&#160;&#160;&#160;&#160;&#160;&#160;&#160;&#160;&#160;&#160;&#160;&#160;load&#160;&#160;0.26&#160;&#160;mem&#160;&#160;53%&#160;&#160;disk&#160;&#160;45%&#160;&#160;containers&#160;&#160;4&#160;&#160;▂▁▁▂▂▄▄▂▃▃▅█▇▆██</text><text class="terminal-1640834539-r2" x="1342" y="239.6" textLength="12.2" clip-path="url(#terminal-1640834539-line-9)">
</text><text class="terminal-1640834539-r5" x="12.2" y="264" textLength="1037" clip-path="url(#terminal-1640834539-line-10)">●&#160;web-1&#160;&#160;&#160;&#160;&#160;&#160;&#160;&#160;&#160;&#160;&#160;&#160;&#160;&#160;load&#160;&#160;0.40&#160;&#160;mem&#160;&#160;60%&#160;&#160;disk&#160;&#160;49%&#160;&#160;containers&#160;&#160;5&#160;&#160;▁▂▃▄▃▄▄▄▅▄▇▆▆█▆▇</text><text class="terminal-1640834539-r2" x="1342" y="264" textLength="12.2" clip-path="url(#terminal-1640834539-line-10)">
</text><text class="terminal-1640834539-r5" x="12.2" y="288.4" textLength="1037" clip-path="url(#terminal-1640834539-line-11)">●&#160;web-2&#160;&#160;&#160;&#160;&#160;&#160;&#160;&#160;&#160;&#160;&#160;&#160;&#160;&#160;load&#160;&#160;0.06&#160;&#160;mem&#160;&#160;37%&#160;&#160;disk&#160;&#160;72%&#160;&#160;containers&#160;&#160;1&#160;&#160;▁▁▁▂▁▃▁▄▃▂▅▂▃▄▇█</text><text class="terminal-1640834539-r2" x="1342" y="288.4" textLength="12.2" clip-path="url(#terminal-1640834539-line-11)">
</text><text class="terminal-1640834539-r2" x="1342" y="312.8" textLength="12.2" clip-path="url(#terminal-1640834539-line-12)">
</text><text class="terminal-1640834539-r5" x="12.2" y="337.2" textLength="48.8" clip-path="url(#terminal-1640834539-line-13)">APPS</text><text class="terminal-1640834539-r2" x="1342" y="337.2" textLength="12.2" clip-path="url(#terminal-1640834539-line-13)">
</text><text class="terminal-1640834539-r5" x="12.2" y="361.6" textLength="610" clip-path="url(#terminal-1640834539-line-14)">●&#160;exampleapp&#160;&#160;&#160;&#160;&#160;&#160;&#160;&#160;&#160;&#160;&#160;&#160;&#160;web-1&#160;&#160;&#160;&#160;&#160;&#160;&#160;&#160;&#160;&#160;&#160;&#160;&#160;139ms&#160;&#160;</text><text class="terminal-1640834539-r2" x="1342" y="361.6" textLength="12.2" clip-path="url(#terminal-1640834539-line-14)">
</text><text class="terminal-1640834539-r5" x="12.2" y="386" textLength="915" clip-path="url(#terminal-1640834539-line-15)">●&#160;shopfront&#160;&#160;&#160;&#160;&#160;&#160;&#160;&#160;&#160;&#160;&#160;&#160;&#160;&#160;web-2&#160;&#160;&#160;&#160;&#160;&#160;&#160;&#160;&#160;&#160;&#160;&#160;&#160;113ms&#160;&#160;&#160;&#160;&#160;▲3&#160;to&#160;deploy&#160;·&#160;press&#160;4</text><text class="terminal-1640834539-r2" x="1342" y="386" textLength="12.2" clip-path="url(#terminal-1640834539-line-15)">
</text><text class="terminal-1640834539-r5" x="12.2" y="410.4" textLength="597.8" clip-path="url(#terminal-1640834539-line-16)">●&#160;sitefarm&#160;&#160;&#160;&#160;&#160;&#160;&#160;&#160;&#160;&#160;&#160;&#160;&#160;&#160;&#160;sites-1&#160;&#160;&#160;&#160;&#160;&#160;&#160;&#160;&#160;&#160;3&#160;sites</text><text class="terminal-1640834539-r2" x="1342" y="410.4" textLength="12.2" clip-path="url(#terminal-1640834539-line-16)">
</text><text class="terminal-1640834539-r5" x="12.2" y="434.8" textLength="402.6" clip-path="url(#terminal-1640834539-line-17)">&#160;&#160;&#160;&#160;●&#160;acmedetailing&#160;&#160;&#160;&#160;&#160;&#160;&#160;&#160;&#160;&#160;50ms</text><text class="terminal-1640834539-r2" x="1342" y="434.8" textLength="12.2" clip-path="url(#terminal-1640834539-line-17)">
</text><text class="terminal-1640834539-r5" x="12.2" y="459.2" textLength="402.6" clip-path="url(#terminal-1640834539-line-18)">&#160;&#160;&#160;&#160;●&#160;plumberspro&#160;&#160;&#160;&#160;&#160;&#160;&#160;&#160;&#160;&#160;&#160;&#160;85ms</text><text class="terminal-1640834539-r2" x="1342" y="459.2" textLength="12.2" clip-path="url(#terminal-1640834539-line-18)">
</text><text class="terminal-1640834539-r5" x="12.2" y="483.6" textLength="402.6" clip-path="url(#terminal-1640834539-line-19)">&#160;&#160;&#160;&#160;●&#160;roofersnearme&#160;&#160;&#160;&#160;&#160;&#160;&#160;&#160;&#160;&#160;59ms</text><text class="terminal-1640834539-r2" x="1342" y="483.6" textLength="12.2" clip-path="url(#terminal-1640834539-line-19)">
</text><text class="terminal-1640834539-r2" x="1342" y="508" textLength="12.2" clip-path="url(#terminal-1640834539-line-20)">
</text><text class="terminal-1640834539-r2" x="1342" y="532.4" textLength="12.2" clip-path="url(#terminal-1640834539-line-21)">
</text><text class="terminal-1640834539-r2" x="1342" y="556.8" textLength="12.2" clip-path="url(#terminal-1640834539-line-22)">
</text><text class="terminal-1640834539-r2" x="1342" y="581.2" textLength="12.2" clip-path="url(#terminal-1640834539-line-23)">
</text><text class="terminal-1640834539-r2" x="1342" y="605.6" textLength="12.2" clip-path="url(#terminal-1640834539-line-24)">
</text><text class="terminal-1640834539-r2" x="1342" y="630" textLength="12.2" clip-path="url(#terminal-1640834539-line-25)">
</text><text class="terminal-1640834539-r2" x="1342" y="654.4" textLength="12.2" clip-path="url(#terminal-1640834539-line-26)">
</text><text class="terminal-1640834539-r2" x="1342" y="678.8" textLength="12.2" clip-path="url(#terminal-1640834539-line-27)">
</text><text class="terminal-1640834539-r2" x="1342" y="703.2" textLength="12.2" clip-path="url(#terminal-1640834539-line-28)">
</text><text class="terminal-1640834539-r2" x="1342" y="727.6" textLength="12.2" clip-path="url(#terminal-1640834539-line-29)">
</text><text class="terminal-1640834539-r2" x="1342" y="752" textLength="12.2" clip-path="url(#terminal-1640834539-line-30)">
</text><text class="terminal-1640834539-r6" x="0" y="776.4" textLength="36.6" clip-path="url(#terminal-1640834539-line-31)">&#160;c&#160;</text><text class="terminal-1640834539-r5" x="36.6" y="776.4" textLength="61" clip-path="url(#terminal-1640834539-line-31)">Copy&#160;</text><text class="terminal-1640834539-r6" x="97.6" y="776.4" textLength="36.6" clip-path="url(#terminal-1640834539-line-31)">&#160;1&#160;</text><text class="terminal-1640834539-r5" x="134.2" y="776.4" textLength="122" clip-path="url(#terminal-1640834539-line-31)">Dashboard&#160;</text><text class="terminal-1640834539-r6" x="256.2" y="776.4" textLength="36.6" clip-path="url(#terminal-1640834539-line-31)">&#160;2&#160;</text><text class="terminal-1640834539-r5" x="292.8" y="776.4" textLength="122" clip-path="url(#terminal-1640834539-line-31)">Incidents&#160;</text><text class="terminal-1640834539-r6" x="414.8" y="776.4" textLength="36.6" clip-path="url(#terminal-1640834539-line-31)">&#160;3&#160;</text><text class="terminal-1640834539-r5" x="451.4" y="776.4" textLength="61" clip-path="url(#terminal-1640834539-line-31)">Apps&#160;</text><text class="terminal-1640834539-r6" x="512.4" y="776.4" textLength="36.6" clip-path="url(#terminal-1640834539-line-31)">&#160;4&#160;</text><text class="terminal-1640834539-r5" x="549" y="776.4" textLength="85.4" clip-path="url(#terminal-1640834539-line-31)">Deploy&#160;</text><text class="terminal-1640834539-r6" x="634.4" y="776.4" textLength="36.6" clip-path="url(#terminal-1640834539-line-31)">&#160;5&#160;</text><text class="terminal-1640834539-r5" x="671" y="776.4" textLength="61" clip-path="url(#terminal-1640834539-line-31)">Chat&#160;</text><text class="terminal-1640834539-r6" x="732" y="776.4" textLength="36.6" clip-path="url(#terminal-1640834539-line-31)">&#160;6&#160;</text><text class="terminal-1640834539-r5" x="768.6" y="776.4" textLength="61" clip-path="url(#terminal-1640834539-line-31)">Cost&#160;</text><text class="terminal-1640834539-r6" x="829.6" y="776.4" textLength="36.6" clip-path="url(#terminal-1640834539-line-31)">&#160;7&#160;</text><text class="terminal-1640834539-r5" x="866.2" y="776.4" textLength="109.8" clip-path="url(#terminal-1640834539-line-31)">Security&#160;</text><text class="terminal-1640834539-r6" x="976" y="776.4" textLength="36.6" clip-path="url(#terminal-1640834539-line-31)">&#160;8&#160;</text><text class="terminal-1640834539-r5" x="1012.6" y="776.4" textLength="97.6" clip-path="url(#terminal-1640834539-line-31)">Reports&#160;</text><text class="terminal-1640834539-r6" x="1110.2" y="776.4" textLength="36.6" clip-path="url(#terminal-1640834539-line-31)">&#160;h&#160;</text><text class="terminal-1640834539-r5" x="1146.8" y="776.4" textLength="48.8" clip-path="url(#terminal-1640834539-line-31)">Host</text><text class="terminal-1640834539-r7" x="1195.6" y="776.4" textLength="12.2" clip-path="url(#terminal-1640834539-line-31)">▏</text><text class="terminal-1640834539-r6" x="1207.8" y="776.4" textLength="12.2" clip-path="url(#terminal-1640834539-line-31)">^</text><text class="terminal-1640834539-r6" x="1220" y="776.4" textLength="12.2" clip-path="url(#terminal-1640834539-line-31)">p</text><text class="terminal-1640834539-r5" x="1232.2" y="776.4" textLength="85.4" clip-path="url(#terminal-1640834539-line-31)">&#160;palett</text><text class="terminal-1640834539-r5" x="1317.6" y="776.4" textLength="12.2" clip-path="url(#terminal-1640834539-line-31)">e</text>
    </g>
    </g>
</svg>
